<svg height="150" viewBox="0 0 32 32" width="150" xmlns="http://www.w3.org/2000/svg"><path d="m8 8c-2.757 0-5 2.243-5 5s2.243 5 5 5h6c.551 0 1 .448 1 1s-.449 1-1 1h-9c-1.104 0-2 .896-2 2s.896 2 2 2h9c2.757 0 5-2.243 5-5s-2.243-5-5-5h-6c-.551 0-1-.448-1-1s.449-1 1-1h7c1.104 0 2-.896 2-2s-.896-2-2-2zm10.445312 0c.344001.59.554688 1.268.554688 2 0 .734-.216547 1.409-.560547 2h5.560547c.552 0 1 .448 1 1v6c0 .552-.448 1-1 1h-3.080078c-.224 1.556-.95625 2.949-2.03125 4h6.111328c2.209 0 4-1.791 4-4v-8c0-2.209-1.791-4-4-4z" fill="#018d83"/></svg>