<?xml version="1.0" encoding="utf-8"?>
<!-- Generator: Adobe Illustrator 19.0.0, SVG Export Plug-In . SVG Version: 6.00 Build 0)  -->
<svg version="1.1" xmlns="http://www.w3.org/2000/svg" xmlns:xlink="http://www.w3.org/1999/xlink" x="0px" y="0px"
	 viewBox="0 0 500 500" style="enable-background:new 0 0 500 500;" xml:space="preserve">
<g id="レイヤー_2">
	<path id="XMLID_2_" style="fill:#232B62;" d="M331.2,157.8c0,44.3-35.9,80.2-80.2,80.2s-80.2-35.9-80.2-80.2
		c0-17.9-0.5-133.4-0.5-133.4c12.2-4.4,22.8-7.1,30.8-8.8c4.9-1.1,24.3-5,50.9-5.3c6.9-0.1,15.5-0.2,26.6,1
		c12.9,1.4,28.2,4.7,52.3,12.7C330.8,24,331.2,135.5,331.2,157.8z"/>
</g>
<g id="レイヤー_4">
	<path id="XMLID_10_" style="fill:#D04B37;" d="M336.9,25.6l0.5,144.1c-0.2,9.2-2.2,24-13,40.7c0,0-8.6,12.2-12.4,15.8
		c-71,67-147.1,139.3-218.1,206.3c14.3,12.6,37.7,30.2,70.5,43.1c36,14.1,67.8,16.5,87.6,16.4c15.7-0.1,106.9-7,174.7-76.2
		c66.1-67.5,67.9-149.9,67.9-166.3c-0.1-21-3.2-86.7-51.3-147.5C405,53.4,357.9,33.2,336.9,25.6z"/>
</g>
<g id="レイヤー_3">
	<path id="XMLID_5_" style="fill:#BFD749;" d="M163.4,25.4c-19.6,7.2-53.8,22.5-86.3,54.7c-33.8,33.5-49.7,69.1-56.8,88.9
		c-7.1,20.8-27.1,88.4,1.8,164.4c18,47.5,47.4,78,64.8,93.4c68.3-64.5,136.6-129,204.9-193.5c-5.4,4-23.7,16.3-50.4,13
		c-28.7-3.5-47.3-19.5-52.1-24.1C165.4,199.4,164,174.7,164,169v0C164,169,163.4,25.4,163.4,25.4z"/>
	<g id="XMLID_1_">
	</g>
	<g id="XMLID_6_">
	</g>
	<g id="XMLID_7_">
	</g>
	<g id="XMLID_8_">
	</g>
	<g id="XMLID_9_">
	</g>
	<g id="XMLID_11_">
	</g>
	<g id="XMLID_12_">
	</g>
	<g id="XMLID_13_">
	</g>
	<g id="XMLID_14_">
	</g>
	<g id="XMLID_15_">
	</g>
	<g id="XMLID_16_">
	</g>
	<g id="XMLID_17_">
	</g>
	<g id="XMLID_18_">
	</g>
	<g id="XMLID_19_">
	</g>
	<g id="XMLID_20_">
	</g>
</g>
</svg>
